:SAMPLES-PER-SECOND 30
:FRAME-RANGE 1-1390
:FULLY-SPECIFIED
:DEGREES
782
root  -33.429 39.4502 -9.46465 -6.04309 32.743 -3.14022
RightUpLeg  3.38482 -10.313 2.12142
RightLeg  25.1228 -5.19806 -2.88234
RightFoot  -11.5111 -0.0564736 14.8552
RightToes  -2.9104e-010 0 -3.6325e-017
Spine  17.203 -0.734098 -4.16434
Spine1  -1.97073 -5.04972 5.33374
HEad  -8.12001 38.5806 -20.5548
LeftShoulder1  3.09776 -4.58576 -32.2881
LeftArm  107.324 -28.9167 -81.6953
LeftForeArm  -26.1831 -23.7703 -6.38491
LeftHand  -0.00841828 3.09301 -0.442203
RightShoulder  10.733 16.8694 46.039
RightArm  32.5744 3.44351 22.3971
RightForeArm  28.3661 32.5845 5.57509
RightHand  1.22457 5.82245 12.2755
LeftUpLeg  -94.5137 26.1156 -75.3618
LeftLeg  127.979 -4.51689 4.92192
LeftFoot  11.6573 2.1546 -10.9176
LeftToes  5.45371e-012 -1.3743e-010 1.09575e-010
783
root  -32.727 40.3223 -8.49844 -5.93299 34.0294 -1.21798
RightUpLeg  3.53442 -8.89671 -0.0306242
RightLeg  28.3607 -6.39254 -3.96214
RightFoot  -3.03178 -1.35471 18.2194
RightToes  -2.9104e-010 0 -3.6325e-017
Spine  17.3735 -0.571413 -3.96593
Spine1  -2.22051 -4.70972 4.54671
HEad  -4.07865 38.6831 -19.6498
LeftShoulder1  3.04402 -4.50193 -32.0169
LeftArm  106.084 -28.8269 -81.8817
LeftForeArm  -25.2221 -23.235 -6.60206
LeftHand  0.0023879 2.83513 -0.837119
RightShoulder  11.0121 17.2146 46.4579
RightArm  33.1381 3.09764 22.6056
RightForeArm  26.2973 31.7314 5.48437
RightHand  1.26621 5.92879 12.5753
LeftUpLeg  -94.9467 25.5231 -75.0159
LeftLeg  128.541 -7.05194 7.73684
LeftFoot  13.0899 2.12279 -10.1576
LeftToes  5.45371e-012 -1.3743e-010 1.09575e-010
784
root  -32.1108 40.9638 -7.74242 -6.12247 35.0003 -0.21298
RightUpLeg  -1.52831 -7.18944 0.106588
RightLeg  37.9635 -9.71963 -8.30956
RightFoot  8.37837 -1.18894 7.16399
RightToes  -2.9104e-010 0 -3.6325e-017
Spine  18.7287 -0.301173 -3.03473
Spine1  -2.28635 -4.22535 4.03976
HEad  -2.65809 37.9261 -19.4123
LeftShoulder1  3.01513 -4.54533 -31.4508
LeftArm  107.751 -29.2519 -82.6475
LeftForeArm  -26.5015 -23.4892 -6.51979
LeftHand  0.00965748 2.63646 -1.04282
RightShoulder  11.1319 17.3276 46.7143
RightArm  31.9077 3.69142 22.5672
RightForeArm  26.5113 31.0646 5.31214
RightHand  1.28811 6.39216 12.2697
LeftUpLeg  -95.3402 24.9457 -74.2055
LeftLeg  127.749 -8.2117 9.31332
LeftFoot  12.691 1.83172 -8.95916
LeftToes  5.45371e-012 -1.3743e-010 1.09575e-010
785
root  -31.6413 41.1247 -7.10259 -5.3536 36.0981 1.00169
RightUpLeg  -6.54479 -4.35458 0.600606
RightLeg  40.7926 -6.96122 -6.67952
RightFoot  6.10551 -0.831489 5.68733
RightToes  -2.9104e-010 0 -3.6325e-017
Spine  20.5334 0.0405978 -3.45859
Spine1  -2.47382 -4.14072 4.52344
HEad  -2.83626 37.5143 -19.8382
LeftShoulder1  2.97755 -4.56226 -30.9022
LeftArm  109.475 -29.3603 -83.3347
LeftForeArm  -29.2784 -23.7091 -6.56878
LeftHand  0.00769524 2.39001 -0.822371
RightShoulder  11.2082 17.7485 46.0778
RightArm  30.6125 4.64977 22.3326
RightForeArm  27.3112 31.1943 5.29825
RightHand  1.25269 6.61854 11.6892
LeftUpLeg  -95.2287 23.5059 -74.6428
LeftLeg  125.958 -8.00327 9.67422
LeftFoot  10.0425 1.56584 -8.60784
LeftToes  5.45371e-012 -1.3743e-010 1.09575e-010
786
root  -31.2352 41.096 -6.47589 -4.47717 37.7172 1.32902
RightUpLeg  -10.1924 -3.7409 1.48199
RightLeg  33.4551 -7.26537 -5.39177
RightFoot  3.52753 -1.01447 7.94741
RightToes  -2.9104e-010 0 -3.6325e-017
Spine  22.3921 -0.202085 -3.67293
Spine1  -2.32152 -4.74457 5.31405
HEad  -4.13044 37.2548 -20.2488
LeftShoulder1  2.89333 -4.47903 -30.2235
LeftArm  109.066 -29.4573 -84.1112
LeftForeArm  -29.8155 -23.1481 -6.95493
LeftHand  -0.0129758 2.29713 0.0184679
RightShoulder  11.521 18.4003 45.94
RightArm  28.9248 6.06257 22.0699
RightForeArm  28.906 31.24 5.22012
RightHand  1.25587 6.99467 11.345
LeftUpLeg  -95.0026 22.5715 -74.0692
LeftLeg  124.192 -6.1474 7.85808
LeftFoot  9.50271 1.81005 -10.1375
LeftToes  5.45371e-012 -1.3743e-010 1.09575e-010
787
root  -30.8792 40.6649 -5.89503 -3.23844 38.8484 1.48663
RightUpLeg  -13.9007 -3.70982 2.56585
RightLeg  22.4818 -5.83679 -2.87122
RightFoot  -0.0484706 -1.0043 10.1295
RightToes  -2.9104e-010 0 -3.6325e-017
Spine  24.2808 0.0479328 -3.52816
Spine1  -2.12683 -4.85424 6.09823
HEad  -5.44431 35.7551 -20.935
LeftShoulder1  2.90245 -4.75408 -29.1092
LeftArm  108.309 -29.9129 -85.9154
LeftForeArm  -29.5018 -22.5711 -7.47493
LeftHand  -0.0294014 2.28101 0.650633
RightShoulder  11.3895 18.7644 44.6131
RightArm  26.3037 6.61519 22.0399
RightForeArm  31.5359 32.7098 5.42697
RightHand  1.24071 7.09652 11.1083
LeftUpLeg  -95.3274 21.8201 -74.0282
LeftLeg  122.757 -4.7391 6.3017
LeftFoot  9.7843 2.19365 -12.0506
LeftToes  5.45371e-012 -1.3743e-010 1.09575e-010
788
root  -30.5321 39.7023 -5.20783 -1.92562 40.1355 1.93777
RightUpLeg  -18.1665 -3.30911 3.2704
RightLeg  14.9506 -1.32875 0.252343
RightFoot  -0.522082 -1.3241 13.8818
RightToes  -2.9104e-010 0 -3.6325e-017
Spine  25.6226 0.177695 -4.13138
Spine1  -1.58227 -5.22471 7.1056
HEad  -6.35603 35.1595 -21.4687
LeftShoulder1  2.88242 -4.96451 -27.9729
LeftArm  108.142 -29.5337 -86.3644
LeftForeArm  -31.6788 -22.1316 -8.11614
LeftHand  -0.0390531 2.0658 0.993616
RightShoulder  11.3691 18.9499 44.1386
RightArm  24.5804 7.22844 21.3029
RightForeArm  33.289 34.7251 5.82972
RightHand  1.27695 7.01077 11.5241
LeftUpLeg  -95.4138 20.9602 -74.1933
LeftLeg  122.115 -4.43412 6.01469
LeftFoot  10.651 2.66024 -13.971
LeftToes  5.45371e-012 -1.3743e-010 1.09575e-010
789
root  -30.0969 38.2131 -4.24157 -1.83803 42.3261 2.45171
RightUpLeg  -20.9908 -4.17145 3.84829
RightLeg  14.9069 -0.450201 1.08744
RightFoot  0.583517 -1.56166 14.9132
RightToes  -2.9104e-010 0 -3.6325e-017
Spine  25.7627 -0.123597 -4.77365
Spine1  0.230426 -5.9072 7.43496
HEad  -5.00152 34.8841 -19.6356
LeftShoulder1  2.86699 -5.05496 -27.4173
LeftArm  107.939 -28.7255 -85.8182
LeftForeArm  -32.0308 -21.6807 -8.67676
LeftHand  -0.0679661 1.76669 1.90679
RightShoulder  11.3035 18.9001 43.9739
RightArm  23.3645 6.76726 20.6977
RightForeArm  33.658 37.4716 6.53239
RightHand  1.33213 6.57346 12.4955
LeftUpLeg  -93.428 20.5563 -73.8767
LeftLeg  123.055 -4.46824 5.84976
LeftFoot  9.24582 2.287 -12.8614
LeftToes  5.45371e-012 -1.3743e-010 1.09575e-010
790
root  -29.6846 36.7808 -3.08319 -4.83 44.3584 0.636503
RightUpLeg  -25.5383 -8.75087 8.93565
RightLeg  27.9128 -0.317005 -0.432906
RightFoot  0.178922 0.704181 -6.95408
RightToes  -2.9104e-010 0 -3.6325e-017
Spine  26.5597 0.382269 -2.65141
Spine1  1.75434 -5.93542 7.50536
HEad  -2.32481 32.8705 -17.3249
LeftShoulder1  2.77962 -4.82888 -27.272
LeftArm  100.84 -27.3884 -86.1431
LeftForeArm  -22.8808 -20.4117 -9.54433
LeftHand  -0.123496 1.47434 3.48249
RightShoulder  10.7658 17.8712 43.9111
RightArm  21.1446 5.41042 20.3464
RightForeArm  34.6227 39.7245 7.10954
RightHand  1.23202 6.28839 11.8344
LeftUpLeg  -92.1224 21.8566 -71.3177
LeftLeg  124.125 -5.53724 7.06226
LeftFoot  10.9741 1.25879 -6.71835
LeftToes  5.45371e-012 -1.3743e-010 1.09575e-010
791
root  -29.159 35.4498 -2.33953 -10.4898 43.1523 -2.80255
RightUpLeg  -26.8886 -2.07899 11.3328
RightLeg  40.3326 -5.05401 -4.87812
RightFoot  -6.40772 0.181905 -5.22089
RightToes  -2.9104e-010 0 -3.6325e-017
Spine  29.7757 0.483628 2.16537
Spine1  1.50476 -3.83081 5.048
HEad  -3.8303 31.9046 -18.3135
LeftShoulder1  2.76801 -4.57771 -28.19
LeftArm  87.0197 -28.0245 -85.5565
LeftForeArm  -10.1326 -19.9564 -9.04811
LeftHand  -0.11927 1.70651 3.53267
RightShoulder  11.4106 18.6582 44.9262
RightArm  13.6124 7.58268 17.9908
RightForeArm  35.684 41.3781 7.53656
RightHand  1.4255 6.43002 13.5565
LeftUpLeg  -96.4294 23.7384 -71.4125
LeftLeg  121.143 -9.82176 14.1732
LeftFoot  14.93 0.256044 -1.49131
LeftToes  5.45371e-012 -1.3743e-010 1.09575e-010
792
root  -28.7531 34.798 -1.70137 -11.4757 43.3644 -2.9243
RightUpLeg  -27.8288 -4.40604 11.9755
RightLeg  46.1684 -3.84388 -4.61813
RightFoot  -10.2655 -0.00554138 -6.7738
RightToes  -2.9104e-010 0 -3.6325e-017
Spine  29.5413 0.825279 0.556503
Spine1  3.46205 -4.2633 7.15978
HEad  -2.9697 33.2808 -17.2761
LeftShoulder1  2.64933 -4.54991 -26.7925
LeftArm  83.2691 -30.8501 -87.3636
LeftForeArm  -9.85834 -19.015 -10.117
LeftHand  -0.151709 1.53995 4.39779
RightShoulder  12.4085 21.9855 42.2676
RightArm  12.623 10.0314 19.1787
RightForeArm  37.6019 41.3025 7.39413
RightHand  1.48644 7.28617 13.1504
LeftUpLeg  -99.3891 23.4986 -72.7693
LeftLeg  117.993 -5.15297 8.30413
LeftFoot  10.9956 1.31364 -6.98947
LeftToes  5.45371e-012 -1.3743e-010 1.09575e-010
793
root  -28.5248 34.7289 -1.13359 -13.8104 45.4931 -4.71454
RightUpLeg  -26.2506 -6.51296 12.8422
RightLeg  47.116 -3.94723 -4.8852
RightFoot  -12.3952 -0.133919 -5.45751
RightToes  -2.9104e-010 0 -3.6325e-017
Spine  30.5417 0.203519 0.885548
Spine1  2.02794 -4.62415 7.69056
HEad  0.329593 31.8503 -15.0696
LeftShoulder1  2.63793 -4.63742 -26.2813
LeftArm  97.4504 -33.5636 -89.4869
LeftForeArm  -20.5789 -18.8616 -11.2302
LeftHand  -0.10606 3.41846 5.40119
RightShoulder  12.9684 23.392 41.7991
RightArm  15.7099 11.4839 19.7426
RightForeArm  42.3733 38.7734 6.38207
RightHand  1.24064 7.11536 11.0899
LeftUpLeg  -98.2619 22.5124 -70.5795
LeftLeg  115.831 1.92363 -4.23393
LeftFoot  3.81163 1.43416 -10.9318
LeftToes  5.45371e-012 -1.3743e-010 1.09575e-010
794
root  -28.4003 35.1238 -0.421822 -13.683 46.8872 -4.58691
RightUpLeg  -24.1356 -6.95349 12.8942
RightLeg  45.0968 -4.7166 -5.37676
RightFoot  -13.0229 -0.162543 -5.07972
RightToes  -2.9104e-010 0 -3.6325e-017
Spine  29.6496 0.58673 0.724318
Spine1  1.39813 -4.12326 7.23599
HEad  1.92728 29.6558 -14.1642
LeftShoulder1  2.67352 -4.68689 -26.5293
LeftArm  104.942 -33.9519 -89.8434
LeftForeArm  -27.8627 -20.3304 -10.0266
LeftHand  -0.0890142 3.56778 4.67586
RightShoulder  13.7549 24.5459 42.5355
RightArm  17.0684 11.4246 19.5711
RightForeArm  39.9844 35.8143 5.73113
RightHand  1.22407 7.10267 10.9498
LeftUpLeg  -98.7075 22.5375 -70.6745
LeftLeg  115.916 1.29222 -3.03257
LeftFoot  2.85214 1.92508 -15.5234
LeftToes  5.45371e-012 -1.3743e-010 1.09575e-010
795
root  -28.3466 35.905 0.350434 -12.5633 48.6158 -3.34112
RightUpLeg  -20.8268 -7.01519 12.1272
RightLeg  40.4304 -5.86341 -5.62305
RightFoot  -12.3055 -0.120241 -4.40943
RightToes  -2.9104e-010 0 -3.6325e-017
Spine  28.3203 1.17293 0.174124
Spine1  0.646901 -3.52185 6.2726
HEad  3.6541 27.7171 -12.7528
LeftShoulder1  2.71233 -4.6941 -26.9898
LeftArm  105.509 -32.8773 -89.1748
LeftForeArm  -28.4405 -20.8617 -9.41469
LeftHand  -0.0901039 2.8746 3.55622
RightShoulder  13.307 23.4876 42.8087
RightArm  18.6786 10.2353 20.4227
RightForeArm  36.8655 34.3489 5.53378
RightHand  1.29271 7.133 11.5498
LeftUpLeg  -99.2435 23.088 -71.274
LeftLeg  117.897 -1.5726 2.17318
LeftFoot  6.61784 1.90495 -12.2739
LeftToes  5.45371e-012 -1.3743e-010 1.09575e-010
